<svg height="990" width="720" xmlns="http://www.w3.org/2000/svg">
<rect height="990" fill="#555" width="720"></rect>
<text fill="#7f7" font-family="Courier New" font-size="12" xml:space="preserve">
<tspan x="10" y="26">12 megabytes installed</tspan>
<tspan x="10" y="42"></tspan>
<tspan x="10" y="58">node_modules</tspan>
<tspan x="10" y="74">└─┬ pug@2.0.0-beta11 </tspan>
<tspan x="10" y="90">  ├─┬ pug-code-gen@1.1.1 </tspan>
<tspan x="10" y="106">  │ ├─┬ constantinople@3.1.0 </tspan>
<tspan x="10" y="122">  │ │ ├── acorn@3.3.0 </tspan>
<tspan x="10" y="138">  │ │ └── is-expression@2.1.0 </tspan>
<tspan x="10" y="154">  │ ├── doctypes@1.1.0 </tspan>
<tspan x="10" y="170">  │ ├── js-stringify@1.0.2 </tspan>
<tspan x="10" y="186">  │ ├── pug-attrs@2.0.2 </tspan>
<tspan x="10" y="202">  │ ├── pug-error@1.3.2 </tspan>
<tspan x="10" y="218">  │ ├── void-elements@2.0.1 </tspan>
<tspan x="10" y="234">  │ └─┬ with@5.1.1 </tspan>
<tspan x="10" y="250">  │   └─┬ acorn-globals@3.1.0 </tspan>
<tspan x="10" y="266">  │     └── acorn@4.0.11 </tspan>
<tspan x="10" y="282">  ├─┬ pug-filters@2.1.1 </tspan>
<tspan x="10" y="298">  │ ├─┬ clean-css@3.4.25 </tspan>
<tspan x="10" y="314">  │ │ ├─┬ commander@2.8.1 </tspan>
<tspan x="10" y="330">  │ │ │ └── graceful-readlink@1.0.1 </tspan>
<tspan x="10" y="346">  │ │ └─┬ source-map@0.4.4 </tspan>
<tspan x="10" y="362">  │ │   └── amdefine@1.0.1 </tspan>
<tspan x="10" y="378">  │ ├─┬ jstransformer@1.0.0 </tspan>
<tspan x="10" y="394">  │ │ ├── is-promise@2.1.0 </tspan>
<tspan x="10" y="410">  │ │ └─┬ promise@7.1.1 </tspan>
<tspan x="10" y="426">  │ │   └── asap@2.0.5 </tspan>
<tspan x="10" y="442">  │ ├── pug-walk@1.1.1 </tspan>
<tspan x="10" y="458">  │ ├─┬ resolve@1.3.2 </tspan>
<tspan x="10" y="474">  │ │ └── path-parse@1.0.5 </tspan>
<tspan x="10" y="490">  │ └─┬ uglify-js@2.8.22 </tspan>
<tspan x="10" y="506">  │   ├── source-map@0.5.6 </tspan>
<tspan x="10" y="522">  │   ├── uglify-to-browserify@1.0.2 </tspan>
<tspan x="10" y="538">  │   └─┬ yargs@3.10.0 </tspan>
<tspan x="10" y="554">  │     ├── camelcase@1.2.1 </tspan>
<tspan x="10" y="570">  │     ├─┬ cliui@2.1.0 </tspan>
<tspan x="10" y="586">  │     │ ├─┬ center-align@0.1.3 </tspan>
<tspan x="10" y="602">  │     │ │ ├─┬ align-text@0.1.4 </tspan>
<tspan x="10" y="618">  │     │ │ │ ├─┬ kind-of@3.1.0 </tspan>
<tspan x="10" y="634">  │     │ │ │ │ └── is-buffer@1.1.5 </tspan>
<tspan x="10" y="650">  │     │ │ │ ├── longest@1.0.1 </tspan>
<tspan x="10" y="666">  │     │ │ │ └── repeat-string@1.6.1 </tspan>
<tspan x="10" y="682">  │     │ │ └── lazy-cache@1.0.4 </tspan>
<tspan x="10" y="698">  │     │ ├── right-align@0.1.3 </tspan>
<tspan x="10" y="714">  │     │ └── wordwrap@0.0.2 </tspan>
<tspan x="10" y="730">  │     ├── decamelize@1.2.0 </tspan>
<tspan x="10" y="746">  │     └── window-size@0.1.0 </tspan>
<tspan x="10" y="762">  ├─┬ pug-lexer@3.0.0 </tspan>
<tspan x="10" y="778">  │ ├─┬ character-parser@2.2.0 </tspan>
<tspan x="10" y="794">  │ │ └─┬ is-regex@1.0.4 </tspan>
<tspan x="10" y="810">  │ │   └─┬ has@1.0.1 </tspan>
<tspan x="10" y="826">  │ │     └── function-bind@1.1.0 </tspan>
<tspan x="10" y="842">  │ └─┬ is-expression@3.0.0 </tspan>
<tspan x="10" y="858">  │   └── acorn@4.0.11 </tspan>
<tspan x="10" y="874">  ├── pug-linker@2.0.2 </tspan>
<tspan x="10" y="890">  ├─┬ pug-load@2.0.5 </tspan>
<tspan x="10" y="906">  │ └── object-assign@4.1.1 </tspan>
<tspan x="10" y="922">  ├─┬ pug-parser@2.0.2 </tspan>
<tspan x="10" y="938">  │ └── token-stream@0.0.1 </tspan>
<tspan x="10" y="954">  ├── pug-runtime@2.0.3 </tspan>
<tspan x="10" y="970">  └── pug-strip-comments@1.0.2</tspan>
</text>
</svg>
